<svg width="420" height="320" viewBox="0 0 420 320" fill="none" xmlns="http://www.w3.org/2000/svg">
  <rect width="420" height="320" rx="34" fill="url(#bg)"/>
  <circle cx="84" cy="70" r="22" fill="#FACC15" opacity="0.95"/>
  <circle cx="339" cy="74" r="18" fill="#A855F7" opacity="0.18"/>
  <circle cx="360" cy="238" r="28" fill="#22C55E" opacity="0.18"/>
  <rect x="48" y="77" width="145" height="185" rx="24" fill="#FFFFFF" opacity="0.96"/>
  <rect x="64" y="97" width="112" height="14" rx="7" fill="#2563EB"/>
  <rect x="64" y="124" width="86" height="12" rx="6" fill="#BFDBFE"/>
  <rect x="64" y="145" width="102" height="12" rx="6" fill="#DBEAFE"/>
  <rect x="64" y="181" width="36" height="36" rx="12" fill="#FACC15"/>
  <path d="M76 200H88" stroke="#1E3A8A" stroke-width="6" stroke-linecap="round"/>
  <path d="M82 194V206" stroke="#1E3A8A" stroke-width="6" stroke-linecap="round"/>
  <rect x="112" y="181" width="36" height="36" rx="12" fill="#22C55E" opacity="0.22"/>
  <path d="M121 199L128 206L140 192" stroke="#15803D" stroke-width="6" stroke-linecap="round" stroke-linejoin="round"/>
  <rect x="212" y="54" width="160" height="212" rx="32" fill="#FFFFFF" opacity="0.96"/>
  <rect x="234" y="81" width="116" height="128" rx="24" fill="#DBEAFE"/>
  <path d="M258 110C258 103.373 263.373 98 270 98H314C320.627 98 326 103.373 326 110V176C326 182.627 320.627 188 314 188H270C263.373 188 258 182.627 258 176V110Z" fill="#FFFFFF"/>
  <path d="M274 124H310" stroke="#2563EB" stroke-width="8" stroke-linecap="round"/>
  <path d="M274 145H312" stroke="#60A5FA" stroke-width="8" stroke-linecap="round"/>
  <path d="M274 166H302" stroke="#93C5FD" stroke-width="8" stroke-linecap="round"/>
  <circle cx="324" cy="219" r="26" fill="#F97316" opacity="0.2"/>
  <path d="M232 236H352" stroke="#2563EB" stroke-width="10" stroke-linecap="round"/>
  <path d="M250 236V210" stroke="#2563EB" stroke-width="10" stroke-linecap="round"/>
  <path d="M292 236V196" stroke="#2563EB" stroke-width="10" stroke-linecap="round"/>
  <path d="M334 236V220" stroke="#2563EB" stroke-width="10" stroke-linecap="round"/>
  <defs>
    <linearGradient id="bg" x1="31" y1="24" x2="380" y2="300" gradientUnits="userSpaceOnUse">
      <stop stop-color="#E0EEFF"/>
      <stop offset="1" stop-color="#F8FBFF"/>
    </linearGradient>
  </defs>
</svg>
